<svg xmlns="http://www.w3.org/2000/svg" fill="none" viewBox="0 0 100 100" height="400" width="400"><path stroke="#ffffff" stroke-linecap="round" stroke-linejoin="round" d="M24.103 33.854L18.782 45.854"></path><path stroke="#ffffff" stroke-linecap="round" stroke-linejoin="round" d="M32.016 70.791L21.506 62.628"></path><path stroke="#ffffff" stroke-linecap="round" stroke-linejoin="round" d="M41.577 54.125L24.937 55.71"></path><path stroke="#ffffff" stroke-linecap="round" stroke-linejoin="round" d="M32.97 27.219L48.685 23.873"></path><path stroke="#ffffff" stroke-linecap="round" stroke-linejoin="round" d="M69.068 37.806L63.989 29.775"></path><path stroke="#ffffff" stroke-linecap="round" stroke-linejoin="round" d="M27.819 34.295L36.001 67.695"></path><path stroke="#ffffff" stroke-linecap="round" stroke-linejoin="round" d="M56.329 31.284L54.845 36.853"></path><path stroke="#ffffff" stroke-linecap="round" stroke-linejoin="round" d="M30.701 32.958L43.739 46.219"></path><path stroke="#ffffff" stroke-linecap="round" stroke-linejoin="round" d="M51.564 72.008L43.93 73.866"></path><path stroke="#ffffff" stroke-linecap="round" stroke-linejoin="round" d="M23.251 49.5L50.803 28.006"></path><path stroke="#ffffff" stroke-linecap="round" stroke-linejoin="round" d="M14.978 65.06C20.4887 65.06 24.956 60.5927 24.956 55.082C24.956 49.5713 20.4887 45.104 14.978 45.104C9.4673 45.104 5 49.5713 5 55.082C5 60.5927 9.4673 65.06 14.978 65.06Z"></path><path stroke="#ffffff" stroke-linecap="round" stroke-linejoin="round" d="M10.409 56.48V56.709C10.1868 56.7509 9.98734 56.8721 9.84776 57.05C9.70819 57.2279 9.63799 57.4505 9.65022 57.6763C9.66244 57.9021 9.75626 58.1158 9.91423 58.2776C10.0722 58.4394 10.2836 58.5383 10.509 58.556C10.7236 59.5837 11.2855 60.5061 12.1002 61.1682C12.9149 61.8304 13.9327 62.1918 14.9825 62.1918C16.0323 62.1918 17.0501 61.8304 17.8648 61.1682C18.6795 60.5061 19.2414 59.5837 19.456 58.556C19.6814 58.5383 19.8928 58.4394 20.0508 58.2776C20.2087 58.1158 20.3026 57.9021 20.3148 57.6763C20.327 57.4505 20.2568 57.2279 20.1172 57.05C19.9777 56.8721 19.7782 56.7509 19.556 56.709V56.1"></path><path stroke="#ffffff" stroke-linecap="round" stroke-linejoin="round" d="M13.836 59.561C14.1742 59.7869 14.5718 59.9075 14.9785 59.9075C15.3852 59.9075 15.7828 59.7869 16.121 59.561"></path><path stroke="#ffffff" stroke-linecap="round" stroke-linejoin="round" d="M19.928 54.957C19.928 53.6442 19.4065 52.3851 18.4782 51.4568C17.5499 50.5285 16.2908 50.007 14.978 50.007C13.6652 50.007 12.4061 50.5285 11.4778 51.4568C10.5495 52.3851 10.028 53.6442 10.028 54.957V56.1C10.0283 56.2009 10.0685 56.2975 10.1399 56.3688C10.2114 56.44 10.3081 56.48 10.409 56.48H11.171C11.2209 56.48 11.2703 56.4702 11.3164 56.4511C11.3625 56.432 11.4044 56.404 11.4397 56.3687C11.475 56.3334 11.503 56.2915 11.5221 56.2454C11.5412 56.1993 11.551 56.1499 11.551 56.1C11.5516 55.6466 11.6432 55.1979 11.8203 54.7805C11.9974 54.3631 12.2564 53.9855 12.582 53.67C12.6656 53.5885 12.7667 53.5272 12.8776 53.4908C12.9886 53.4544 13.1064 53.4438 13.222 53.46C13.7013 53.5208 14.1463 53.7405 14.486 54.084C14.9364 54.5484 15.5303 54.8472 16.1717 54.9321C16.813 55.017 17.4642 54.8831 18.02 54.552C18.212 54.9229 18.3357 55.3253 18.385 55.74C18.3949 55.839 18.4414 55.9307 18.5154 55.9973C18.5894 56.0639 18.6855 56.1005 18.785 56.1H19.547C19.6479 56.0997 19.7445 56.0595 19.8158 55.988C19.887 55.9166 19.927 55.8199 19.927 55.719L19.928 54.957Z"></path><path stroke="#ffffff" stroke-linecap="round" stroke-linejoin="round" d="M18.02 54.552C18.06 54.5279 18.0921 54.4927 18.1123 54.4506C18.1325 54.4085 18.1399 54.3614 18.1336 54.3151C18.1273 54.2688 18.1076 54.2254 18.077 54.1902C18.0463 54.155 18.006 54.1296 17.961 54.117C17.3617 53.95 16.8428 53.5722 16.5 53.053"></path><path stroke="#ffffff" d="M13.264 56.922C13.1259 56.922 13.014 56.8101 13.014 56.672C13.014 56.5339 13.1259 56.422 13.264 56.422"></path><path stroke="#ffffff" d="M13.264 56.922C13.4021 56.922 13.514 56.8101 13.514 56.672C13.514 56.5339 13.4021 56.422 13.264 56.422"></path><path stroke="#ffffff" d="M16.691 56.922C16.5529 56.922 16.441 56.8101 16.441 56.672C16.441 56.5339 16.5529 56.422 16.691 56.422"></path><path stroke="#ffffff" d="M16.691 56.922C16.8291 56.922 16.941 56.8101 16.941 56.672C16.941 56.5339 16.8291 56.422 16.691 56.422"></path><path stroke="#ffffff" stroke-linecap="round" stroke-linejoin="round" d="M14.978 50.007C15.6265 50.0063 16.2687 50.1334 16.868 50.381C17.4674 50.6286 18.0121 50.9919 18.471 51.45C18.6744 51.1329 18.7836 50.7647 18.786 50.388C18.786 48.916 17.081 47.723 14.978 47.723C12.875 47.723 11.171 48.916 11.171 50.388C11.1736 50.7645 11.2825 51.1326 11.485 51.45C12.412 50.5249 13.6684 50.0059 14.978 50.007V50.007Z"></path><path stroke="#ffffff" stroke-linecap="round" stroke-linejoin="round" d="M58.384 31.496C63.8947 31.496 68.362 27.0287 68.362 21.518C68.362 16.0073 63.8947 11.54 58.384 11.54C52.8733 11.54 48.406 16.0073 48.406 21.518C48.406 27.0287 52.8733 31.496 58.384 31.496Z"></path><path stroke="#ffffff" stroke-linecap="round" stroke-linejoin="round" d="M53.638 22.812V23.071C53.3859 23.1177 53.1594 23.2545 53.0006 23.4558C52.8419 23.6571 52.7617 23.9093 52.775 24.1653C52.7883 24.4213 52.8943 24.6638 53.0731 24.8475C53.2519 25.0313 53.4914 25.1437 53.747 25.164C53.9903 26.3282 54.627 27.3732 55.55 28.1233C56.473 28.8733 57.6261 29.2828 58.8155 29.2828C60.0049 29.2828 61.158 28.8733 62.081 28.1233C63.004 27.3732 63.6407 26.3282 63.884 25.164C64.1396 25.1437 64.3791 25.0313 64.5579 24.8475C64.7367 24.6638 64.8427 24.4213 64.856 24.1653C64.8693 23.9093 64.7891 23.6571 64.6304 23.4558C64.4716 23.2545 64.2451 23.1177 63.993 23.071V22.381"></path><path stroke="#ffffff" d="M56.976 23.278C56.8379 23.278 56.726 23.1661 56.726 23.028C56.726 22.8899 56.8379 22.778 56.976 22.778"></path><path stroke="#ffffff" d="M56.976 23.278C57.1141 23.278 57.226 23.1661 57.226 23.028C57.226 22.8899 57.1141 22.778 56.976 22.778"></path><path stroke="#ffffff" d="M60.7465 23.278C60.6084 23.278 60.4965 23.1661 60.4965 23.028C60.4965 22.8899 60.6084 22.778 60.7465 22.778"></path><path stroke="#ffffff" d="M60.7465 23.278C60.8846 23.278 60.9965 23.1661 60.9965 23.028C60.9965 22.8899 60.8846 22.778 60.7465 22.778"></path><path stroke="#ffffff" stroke-linecap="round" stroke-linejoin="round" d="M57.521 26.3C57.9043 26.5558 58.3547 26.6923 58.8155 26.6923C59.2763 26.6923 59.7267 26.5558 60.11 26.3"></path><path stroke="#ffffff" stroke-linecap="round" stroke-linejoin="round" d="M53.206 19.132V22.381C53.2063 22.4954 53.2519 22.605 53.3329 22.6858C53.4139 22.7666 53.5236 22.812 53.638 22.812H54.069L55 20.486"></path><path stroke="#ffffff" stroke-linecap="round" stroke-linejoin="round" d="M64.424 18.929C64.424 18.0136 64.0604 17.1358 63.4133 16.4884C62.7661 15.8411 61.8884 15.4773 60.973 15.477H57.09C56.9252 15.4772 56.7638 15.4302 56.6249 15.3416C56.486 15.253 56.3753 15.1265 56.306 14.977C56.2606 14.8767 56.1894 14.7903 56.0996 14.7267C56.0098 14.6631 55.9046 14.6245 55.795 14.615H55.062C54.4011 14.6024 53.759 14.8348 53.2592 15.2674C52.7594 15.7 52.4374 16.3021 52.355 16.958C52.2905 17.635 52.495 18.3102 52.9242 18.8377C53.3535 19.3652 53.973 19.7026 54.649 19.777C54.7711 20.235 55.0279 20.6459 55.386 20.9564C55.7442 21.267 56.1873 21.463 56.658 21.519H57.521C57.5555 21.5194 57.5891 21.5084 57.6167 21.4876C57.6442 21.4669 57.6641 21.4376 57.6733 21.4043C57.6824 21.3711 57.6803 21.3358 57.6672 21.3038C57.6541 21.2719 57.6308 21.2453 57.601 21.228C57.2072 20.9952 56.9201 20.6176 56.801 20.176C56.7883 20.1317 56.7859 20.0852 56.794 20.0398C56.8022 19.9945 56.8206 19.9517 56.848 19.9147C56.8754 19.8776 56.9109 19.8474 56.9518 19.8263C56.9927 19.8052 57.038 19.7938 57.084 19.793H60.61C60.7233 19.7929 60.8356 19.8152 60.9403 19.8586C61.0449 19.902 61.14 19.9657 61.22 20.046L63.556 22.382H63.988C64.1024 22.3817 64.212 22.3361 64.2928 22.2551C64.3736 22.1741 64.419 22.0644 64.419 21.95L64.424 18.929Z"></path><path stroke="#ffffff" stroke-linecap="round" stroke-linejoin="round" d="M76.424 66.268L80.686 70.531"></path><path stroke="#ffffff" stroke-linecap="round" stroke-linejoin="round" d="M77.064 74.153L72.922 70.012"></path><path stroke="#ffffff" stroke-linecap="round" stroke-linejoin="round" d="M93.907 87.2L93.734 87.373C93.0344 88.0673 92.0887 88.4569 91.103 88.4569C90.1173 88.4569 89.1716 88.0673 88.472 87.373L77.033 75.938C76.8018 75.7047 76.6721 75.3895 76.6721 75.061C76.6721 74.7325 76.8018 74.4173 77.033 74.184L80.714 70.5C80.9472 70.2686 81.2624 70.1387 81.591 70.1387C81.9196 70.1387 82.2348 70.2686 82.468 70.5L93.907 81.941C94.2527 82.2861 94.5271 82.6959 94.7142 83.1471C94.9014 83.5983 94.9977 84.082 94.9977 84.5705C94.9977 85.059 94.9014 85.5427 94.7142 85.9939C94.5271 86.4451 94.2527 86.8549 93.907 87.2Z"></path><path stroke="#ffffff" stroke-linecap="round" stroke-linejoin="round" d="M70.7894 71.5221C79.8398 65.9839 82.687 54.1574 77.1487 45.107C71.6104 36.0565 59.7839 33.2094 50.7335 38.7477C41.6831 44.286 38.836 56.1124 44.3742 65.1629C49.9125 74.2133 61.739 77.0604 70.7894 71.5221Z"></path><path stroke="#ffffff" stroke-linecap="round" stroke-linejoin="round" d="M69.35 67.886C68.503 66.2925 67.2462 64.9538 65.7094 64.0079C64.1726 63.0619 62.4113 62.543 60.6071 62.5046C58.8029 62.4662 57.0211 62.9097 55.4454 63.7893C53.8697 64.669 52.5571 65.953 51.643 67.509"></path><path stroke="#ffffff" stroke-linecap="round" stroke-linejoin="round" d="M57.363 62.993L57.342 63.02C57.3979 63.7908 57.7435 64.5118 58.3093 65.0381C58.8751 65.5644 59.6192 65.857 60.392 65.857C61.1648 65.857 61.9089 65.5644 62.4747 65.0381C63.0405 64.5118 63.3861 63.7908 63.442 63.02L63.429 63C61.4602 62.344 59.3318 62.344 57.363 63V62.993Z"></path><path stroke="#ffffff" stroke-linecap="round" stroke-linejoin="round" d="M52.584 53.6C52.3313 52.8031 52.2031 51.972 52.204 51.136C52.204 46.631 54.504 43.097 56.843 42.425C57.038 42.3692 57.2445 42.3667 57.4408 42.4179C57.6371 42.4691 57.8161 42.572 57.959 42.716C60.49 45.262 68.498 42.088 68.498 51.136C68.4986 51.9678 68.3718 52.7947 68.122 53.588"></path><path stroke="#ffffff" stroke-linecap="round" stroke-linejoin="round" d="M67.147 53.173L65.78 53.852L64.793 50.4C64.7008 50.0685 64.4852 49.7848 64.1904 49.6073C63.8957 49.4297 63.5442 49.3716 63.208 49.445C61.3278 49.8917 59.3692 49.8917 57.489 49.445C57.1522 49.3705 56.7997 49.428 56.5041 49.6057C56.2084 49.7833 55.9922 50.0676 55.9 50.4L54.913 53.853L53.565 53.174C51.628 53.174 51.758 56.569 53.905 56.569H53.91C54.3356 57.9456 55.1909 59.1497 56.3505 60.0049C57.5101 60.8601 58.9131 61.3215 60.354 61.3215C61.7949 61.3215 63.1979 60.8601 64.3575 60.0049C65.5171 59.1497 66.3724 57.9456 66.798 56.569C68.954 56.568 69.085 53.173 67.147 53.173Z"></path><path stroke="#ffffff" d="M58.17 53.843C57.8939 53.843 57.67 53.6192 57.67 53.343C57.67 53.0669 57.8939 52.843 58.17 52.843"></path><path stroke="#ffffff" d="M58.17 53.843C58.4461 53.843 58.67 53.6192 58.67 53.343C58.67 53.0669 58.4461 52.843 58.17 52.843"></path><path stroke="#ffffff" d="M62.565 53.843C62.2889 53.843 62.065 53.6192 62.065 53.343C62.065 53.0669 62.2889 52.843 62.565 52.843"></path><path stroke="#ffffff" d="M62.565 53.843C62.8411 53.843 63.065 53.6192 63.065 53.343C63.065 53.0669 62.8411 52.843 62.565 52.843"></path><path stroke="#ffffff" stroke-linecap="round" stroke-linejoin="round" d="M58.67 57.412C59.1727 57.747 59.7634 57.9258 60.3675 57.9258C60.9716 57.9258 61.5623 57.747 62.065 57.412"></path><path stroke="#ffffff" stroke-linecap="round" stroke-linejoin="round" d="M71.63 44.267C73.7796 46.4165 75.2435 49.1552 75.8366 52.1367C76.4297 55.1182 76.1254 58.2086 74.9621 61.0172C73.7988 63.8257 71.8288 66.2262 69.3012 67.9151C66.7736 69.604 63.8019 70.5055 60.762 70.5055C57.7221 70.5055 54.7504 69.604 52.2228 67.9151C49.6952 66.2262 47.7252 63.8257 46.5619 61.0172C45.3986 58.2086 45.0943 55.1182 45.6874 52.1367C46.2805 49.1552 47.7444 46.4165 49.894 44.267C51.3211 42.8396 53.0154 41.7073 54.8802 40.9348C56.7449 40.1623 58.7436 39.7646 60.762 39.7646C62.7804 39.7646 64.7791 40.1623 66.6439 40.9348C68.5086 41.7073 70.2029 42.8396 71.63 44.267V44.267Z"></path><path stroke="#ffffff" stroke-linecap="round" stroke-linejoin="round" d="M37.582 80.193C41.0879 80.193 43.93 77.3509 43.93 73.845C43.93 70.3391 41.0879 67.497 37.582 67.497C34.0761 67.497 31.234 70.3391 31.234 73.845C31.234 77.3509 34.0761 80.193 37.582 80.193Z"></path><path stroke="#ffffff" stroke-linecap="round" stroke-linejoin="round" d="M35.54 73.7C35.5518 74.2339 35.7722 74.7419 36.1539 75.1153C36.5357 75.4887 37.0485 75.6978 37.5825 75.6978C38.1165 75.6978 38.6293 75.4887 39.0111 75.1153C39.3928 74.7419 39.6132 74.2339 39.625 73.7V72.676C39.6132 72.1421 39.3928 71.6341 39.0111 71.2607C38.6293 70.8873 38.1165 70.6782 37.5825 70.6782C37.0485 70.6782 36.5357 70.8873 36.1539 71.2607C35.7722 71.6341 35.5518 72.1421 35.54 72.676V73.7Z"></path><path stroke="#ffffff" stroke-linecap="round" stroke-linejoin="round" d="M41.826 78.566C40.6608 79.6126 39.1498 80.1916 37.5835 80.1916C36.0172 80.1916 34.5062 79.6126 33.341 78.566C33.6914 77.7311 34.2805 77.0183 35.0343 76.5167C35.7881 76.0151 36.6732 75.7472 37.5787 75.7464C38.4841 75.7457 39.3696 76.0122 40.1243 76.5125C40.879 77.0128 41.4692 77.7247 41.821 78.559"></path><path stroke="#ffffff" stroke-linecap="round" stroke-linejoin="round" d="M35.557 72.413C35.6108 72.0012 35.7888 71.6157 36.0673 71.3076C36.3458 70.9996 36.7115 70.7837 37.1157 70.6888C37.52 70.5939 37.9436 70.6244 38.3301 70.7763C38.7165 70.9282 39.0475 71.1942 39.279 71.539C38.7957 72.0077 38.1942 72.3365 37.5388 72.4904C36.8834 72.6443 36.1984 72.6176 35.557 72.413Z"></path><path stroke="#ffffff" stroke-linecap="round" stroke-linejoin="round" d="M26.676 34.398C30.1819 34.398 33.024 31.5559 33.024 28.05C33.024 24.5441 30.1819 21.702 26.676 21.702C23.1701 21.702 20.328 24.5441 20.328 28.05C20.328 31.5559 23.1701 34.398 26.676 34.398Z"></path><path stroke="#ffffff" stroke-linecap="round" stroke-linejoin="round" d="M24.634 27.9C24.634 28.4416 24.8491 28.961 25.2321 29.3439C25.615 29.7268 26.1344 29.942 26.676 29.942C27.2176 29.942 27.737 29.7268 28.1199 29.3439C28.5029 28.961 28.718 28.4416 28.718 27.9V26.881C28.718 26.3394 28.5029 25.82 28.1199 25.4371C27.737 25.0541 27.2176 24.839 26.676 24.839C26.1344 24.839 25.615 25.0541 25.2321 25.4371C24.8491 25.82 24.634 26.3394 24.634 26.881V27.9Z"></path><path stroke="#ffffff" stroke-linecap="round" stroke-linejoin="round" d="M30.919 32.771C29.7539 33.8175 28.2431 34.3965 26.677 34.3965C25.1109 34.3965 23.6001 33.8175 22.435 32.771C22.7838 31.9346 23.3722 31.22 24.1262 30.7171C24.8801 30.2142 25.7659 29.9455 26.6722 29.9447C27.5784 29.944 28.4647 30.2112 29.2195 30.7129C29.9742 31.2145 30.5638 31.9282 30.914 32.764"></path><path stroke="#ffffff" stroke-linecap="round" stroke-linejoin="round" d="M24.65 26.618C24.7035 26.206 24.8813 25.8201 25.1598 25.5119C25.4383 25.2036 25.8043 24.9876 26.2087 24.8928C26.6132 24.7979 27.037 24.8286 27.4235 24.9809C27.81 25.1332 28.1409 25.3998 28.372 25.745C27.8885 26.2134 27.287 26.542 26.6316 26.6957C25.9762 26.8495 25.2914 26.8226 24.65 26.618V26.618Z"></path></svg>